<svg width="195" height="244" viewBox="0 0 195 244" fill="none" xmlns="http://www.w3.org/2000/svg">
<path d="M7.06459 51.5C5.06459 66 1.56459 80.5 1.06459 103.5C0.650964 122.527 1.94818 142.922 13.1649 184.5C18.4433 194.667 42.2 215.3 95 216.5C147.8 217.7 174.71 201.333 181.565 193C186.565 162.5 192.565 146.5 194.065 120C195.136 101.064 190.847 62.9818 184.845 39.5C177.065 51.5 147.5 62.5 99.5646 62.5C59 62.5 12.3508 40.5 13.1649 34C10.0121 41.263 7.92175 45.2856 7.06459 51.5Z" fill="#C75B2C"/>
<path d="M21.5646 213.5C25.2313 219.667 40.5646 233.7 72.5646 240.5C104.565 247.3 139.898 238 153.565 232.5C161.231 229.5 177.565 217.4 181.565 193C174.71 201.333 147.8 217.7 95 216.5C42.2 215.3 18.4433 194.667 13.1649 184.5C15.5073 193.183 18.2823 202.789 21.5646 213.5Z" fill="#C8C2B2"/>
<path fill-rule="evenodd" clip-rule="evenodd" d="M177.952 21.5C175.135 28.5 155.1 42.1 97.5 40.5C39.9 38.9 22.8764 22.5 21.5646 14.5C20.3029 16.771 18.2762 21.6972 16.261 26.5953C15.1864 29.2071 14.1151 31.811 13.1649 34C12.3508 40.5 59 62.5 99.5646 62.5C147.5 62.5 177.065 51.5 184.845 39.5C182.709 31.1446 180.357 24.6378 177.952 21.5Z" fill="#C8C2B2"/>
<path d="M177.065 20.5C167.565 11.5 134.065 1 99.5646 1C65.0646 1 22.651 10 21.5646 14.5C22.8764 22.5 39.9 38.9 97.5 40.5C155.1 42.1 175.135 28.5 177.952 21.5C177.657 21.115 177.361 20.7807 177.065 20.5Z" fill="#E8E4D8"/>
<path d="M21.5646 14.5C22.651 10 65.0646 1 99.5646 1C134.065 1 167.565 11.5 177.065 20.5C177.361 20.7807 177.657 21.115 177.952 21.5M21.5646 14.5C22.8764 22.5 39.9 38.9 97.5 40.5C155.1 42.1 175.135 28.5 177.952 21.5M21.5646 14.5C20.3029 16.771 18.2762 21.6972 16.261 26.5953C15.1864 29.2071 14.1151 31.811 13.1649 34M181.565 193C177.565 217.4 161.231 229.5 153.565 232.5C139.898 238 104.565 247.3 72.5646 240.5C40.5646 233.7 25.2313 219.667 21.5646 213.5C18.2823 202.789 15.5073 193.183 13.1649 184.5M181.565 193C186.565 162.5 192.565 146.5 194.065 120C195.136 101.064 190.847 62.9818 184.845 39.5M181.565 193C174.71 201.333 147.8 217.7 95 216.5C42.2 215.3 18.4433 194.667 13.1649 184.5M13.1649 184.5C1.94818 142.922 0.650964 122.527 1.06459 103.5C1.56459 80.5 5.06459 66 7.06459 51.5C7.92175 45.2856 10.0121 41.263 13.1649 34M13.1649 34C12.3508 40.5 59 62.5 99.5646 62.5C147.5 62.5 177.065 51.5 184.845 39.5M184.845 39.5C182.709 31.1446 180.357 24.6378 177.952 21.5" stroke="black" stroke-opacity="0.49"/>
<circle cx="58.5" cy="47.5" r="4.5" fill="black"/>
<circle cx="58.5" cy="47.5" r="4" stroke="black" stroke-opacity="0.49"/>
<circle cx="70.5" cy="50.5" r="4.5" fill="black"/>
<circle cx="70.5" cy="50.5" r="4" stroke="black" stroke-opacity="0.49"/>
<circle cx="85.5" cy="52.5" r="4.5" fill="black"/>
<circle cx="85.5" cy="52.5" r="4" stroke="black" stroke-opacity="0.49"/>
<circle cx="22.5" cy="32.5" r="4.5" fill="black"/>
<circle cx="22.5" cy="32.5" r="4" stroke="black" stroke-opacity="0.49"/>
<path d="M39 37.5C39 39.9853 36.9853 42 34.5 42C32.0147 42 30 39.9853 30 37.5C30 35.0147 32.0147 33 34.5 33C36.9853 33 39 35.0147 39 37.5Z" fill="black"/>
<path d="M38.5 37.5C38.5 39.7091 36.7091 41.5 34.5 41.5C32.2909 41.5 30.5 39.7091 30.5 37.5C30.5 35.2909 32.2909 33.5 34.5 33.5C36.7091 33.5 38.5 35.2909 38.5 37.5Z" stroke="black" stroke-opacity="0.49"/>
<circle cx="46.5" cy="42.5" r="4.5" fill="black"/>
<circle cx="46.5" cy="42.5" r="4" stroke="black" stroke-opacity="0.49"/>
<circle cx="98.5" cy="52.5" r="4.5" fill="black"/>
<circle cx="98.5" cy="52.5" r="4" stroke="black" stroke-opacity="0.49"/>
<circle cx="177.5" cy="36.5" r="4.5" fill="black"/>
<circle cx="177.5" cy="36.5" r="4" stroke="black" stroke-opacity="0.49"/>
<circle cx="165.5" cy="42.5" r="4.5" fill="black"/>
<circle cx="165.5" cy="42.5" r="4" stroke="black" stroke-opacity="0.49"/>
<circle cx="152.5" cy="47.5" r="4.5" fill="black"/>
<circle cx="152.5" cy="47.5" r="4" stroke="black" stroke-opacity="0.49"/>
<circle cx="139.5" cy="51.5" r="4.5" fill="black"/>
<circle cx="139.5" cy="51.5" r="4" stroke="black" stroke-opacity="0.49"/>
<circle cx="126.5" cy="52.5" r="4.5" fill="black"/>
<circle cx="126.5" cy="52.5" r="4" stroke="black" stroke-opacity="0.49"/>
<circle cx="112.5" cy="52.5" r="4.5" fill="black"/>
<circle cx="112.5" cy="52.5" r="4" stroke="black" stroke-opacity="0.49"/>
<circle cx="26.5" cy="208.5" r="4.5" fill="black"/>
<circle cx="26.5" cy="208.5" r="4" stroke="black" stroke-opacity="0.49"/>
<circle cx="38.5" cy="215.5" r="4.5" fill="black"/>
<circle cx="38.5" cy="215.5" r="4" stroke="black" stroke-opacity="0.49"/>
<circle cx="50.5" cy="220.5" r="4.5" fill="black"/>
<circle cx="50.5" cy="220.5" r="4" stroke="black" stroke-opacity="0.49"/>
<circle cx="63.5" cy="225.5" r="4.5" fill="black"/>
<circle cx="63.5" cy="225.5" r="4" stroke="black" stroke-opacity="0.49"/>
<circle cx="77.5" cy="229.5" r="4.5" fill="black"/>
<circle cx="77.5" cy="229.5" r="4" stroke="black" stroke-opacity="0.49"/>
<circle cx="92.5" cy="230.5" r="4.5" fill="black"/>
<circle cx="92.5" cy="230.5" r="4" stroke="black" stroke-opacity="0.49"/>
<circle cx="106.5" cy="230.5" r="4.5" fill="black"/>
<circle cx="106.5" cy="230.5" r="4" stroke="black" stroke-opacity="0.49"/>
<circle cx="120.5" cy="229.5" r="4.5" fill="black"/>
<circle cx="120.5" cy="229.5" r="4" stroke="black" stroke-opacity="0.49"/>
<circle cx="135.5" cy="225.5" r="4.5" fill="black"/>
<circle cx="135.5" cy="225.5" r="4" stroke="black" stroke-opacity="0.49"/>
<circle cx="148.5" cy="221.5" r="4.5" fill="black"/>
<circle cx="148.5" cy="221.5" r="4" stroke="black" stroke-opacity="0.49"/>
<circle cx="161.5" cy="215.5" r="4.5" fill="black"/>
<circle cx="161.5" cy="215.5" r="4" stroke="black" stroke-opacity="0.49"/>
<path d="M69 135.719L82.1111 122.607L95.2222 135.719L82.1111 148.83L69 135.719Z" fill="black"/>
<path d="M85.6074 119.111L98.7185 106L111.83 119.111L98.7185 132.222L85.6074 119.111Z" fill="black"/>
<path d="M85.1704 151.889L98.2815 138.778L111.393 151.889L98.2815 165L85.1704 151.889Z" fill="black"/>
<path d="M101.778 135.281L114.889 122.17L128 135.281L114.889 148.393L101.778 135.281Z" fill="black"/>
<path d="M69.7071 135.719L82.1111 123.315L94.5151 135.719L82.1111 148.123L69.7071 135.719ZM86.3145 119.111L98.7185 106.707L111.123 119.111L98.7185 131.515L86.3145 119.111ZM85.8775 151.889L98.2815 139.485L110.685 151.889L98.2815 164.293L85.8775 151.889ZM102.485 135.281L114.889 122.877L127.293 135.281L114.889 147.685L102.485 135.281Z" stroke="black" stroke-opacity="0.49"/>
<path d="M112.715 135.5C112.715 143.18 106.351 149.406 98.5 149.406C90.649 149.406 84.2845 143.18 84.2845 135.5C84.2845 127.82 90.649 121.594 98.5 121.594C106.351 121.594 112.715 127.82 112.715 135.5Z" fill="#D5AB36"/>
<path d="M112.215 135.5C112.215 142.894 106.085 148.906 98.5 148.906C90.9147 148.906 84.7845 142.894 84.7845 135.5C84.7845 128.106 90.9147 122.094 98.5 122.094C106.085 122.094 112.215 128.106 112.215 135.5Z" stroke="black" stroke-opacity="0.49"/>
<circle cx="98.5" cy="135.191" r="4.32645" fill="black"/>
<circle cx="98.5" cy="135.191" r="3.82645" stroke="black" stroke-opacity="0.49"/>
</svg>
